<svg xmlns="http://www.w3.org/2000/svg" width="40" height="48" viewBox="0 0 40 48">
  <defs>
    <style>
      .cls-1 {
        fill: #fff;
        fill-rule: evenodd;
      }
    </style>
  </defs>
  <path id="Shape_1_copy" data-name="Shape 1 copy" class="cls-1" d="M2265.85,213a1.139,1.139,0,0,0-.36.067,0.818,0.818,0,0,1-.73.055,0.213,0.213,0,0,0-.27.025c-0.05.073-.12,0.068-0.26-0.019-0.16-.094-0.21-0.1-0.24-0.009a0.224,0.224,0,0,1-.2.111,0.477,0.477,0,0,0-.27.112c-0.09.088-.12,0.088-0.15,0-0.06-.156-0.5-0.14-1.51.058a2.867,2.867,0,0,0-1.23.341,0.832,0.832,0,0,1-.32.159,1.134,1.134,0,0,0-.54.33,0.7,0.7,0,0,1-.27.167,0.855,0.855,0,0,1-.51-0.092,1.02,1.02,0,0,0-.49,0c-0.46.072-.82-0.074-0.82-0.328,0-.091-0.06-0.127-0.19-0.108a0.831,0.831,0,0,0-.45.558,1.866,1.866,0,0,1-1.01,1.075,1.721,1.721,0,0,0-.82.708,1.834,1.834,0,0,1-.18.444,1.158,1.158,0,0,0-.14.753,0.683,0.683,0,0,1-.21.71,2.886,2.886,0,0,1-1.44,1.053,0.531,0.531,0,0,0-.51.466,0.872,0.872,0,0,1-.3.453,2,2,0,0,0-.62,1.066,1.329,1.329,0,0,1-.35.525,1.361,1.361,0,0,0-.37.561,1.366,1.366,0,0,1-.41.76,0.993,0.993,0,0,0-.21.581c-0.05.425-.04,0.451,0.22,0.605s0.37,0.328.2,0.328-0.2.449-.06,0.647a1.478,1.478,0,0,1-.04,1.3,1.9,1.9,0,0,0-.18.617,1.133,1.133,0,0,1-.51.816c-0.17,0-.13.111,0.13,0.314,0.21,0.171.23,0.236,0.22,0.8a0.878,0.878,0,0,0,.23.866c0.16,0.169-.12.315,0.05,0.55a0.19,0.19,0,0,0,.29.075c0.18-.095.39-0.06,0.39,0.066a3.094,3.094,0,0,0,.48.572,1.815,1.815,0,0,1,.5.692,1.7,1.7,0,0,0,.15.878,1.3,1.3,0,0,0,.5.327,6.684,6.684,0,0,1,1.42,1.13c1.01,0.913,1.17.96,1.91,0.564a1.948,1.948,0,0,1,1.46-.236,1.846,1.846,0,0,1,1.01.166,0.414,0.414,0,0,0,.51-0.041,1.318,1.318,0,0,1,.27-0.145c0.11-.044.18-0.059,0.23-0.083,0.17-.089.59-0.288,0.72-0.361a3.278,3.278,0,0,0,.32-0.128,4.217,4.217,0,0,1,1.74-.23,1.385,1.385,0,0,1,.68.91,0.613,0.613,0,0,0,.73.464,2.172,2.172,0,0,1,.3-0.053c0.06-.013.23-0.021,0.43-0.066,0.36-.082.38-0.077,0.74,0.314a0.723,0.723,0,0,1,.33.771,2.7,2.7,0,0,1-.14.636,3.733,3.733,0,0,0-.14,1.225c-0.01.182-.05,0.244-0.19,0.244-0.23,0-.22.146,0.05,0.675,0.12,0.24.19,0.463,0.22,0.522a1.461,1.461,0,0,0,.3.355,4.928,4.928,0,0,1,.68.817c0.02,0.031.4,0.632,0.47,0.7a1.352,1.352,0,0,1,.18.55,1.822,1.822,0,0,0,.14.514,5.19,5.19,0,0,1,.31.661c0.22,0.546.23,0.579,0.07,0.691-0.14.1-.14,0.15-0.04,0.405,0.4,0.993.46,1.727,0.17,2.036a1.546,1.546,0,0,0-.6,1.041,3.3,3.3,0,0,1-.38,1.191,4.525,4.525,0,0,0,.08,1.638,1.01,1.01,0,0,0,.2.378,3.772,3.772,0,0,1,.4.733c0.18,0.4.44,0.951,0.57,1.219a2.669,2.669,0,0,1,.26,1.066,3.734,3.734,0,0,0,.11.839,1.754,1.754,0,0,1,.09.483,5.3,5.3,0,0,0,.19.933,2.31,2.31,0,0,0,.5,1.055,4.042,4.042,0,0,1,.59,1.1,5.98,5.98,0,0,0,.42.925c0.21,0.242.3,0.794,0.13,0.794s-0.19.2-.16,0.338a1.059,1.059,0,0,0,.04.279,0.142,0.142,0,0,0,.14.032,0.1,0.1,0,0,1,.1.107,1.015,1.015,0,0,1-.06.145c-0.09.269,0.01,0.332,0.24,0.332a0.54,0.54,0,0,1,.34.144,0.493,0.493,0,0,0,.27.188,0.48,0.48,0,0,0,.33-0.158,0.682,0.682,0,0,1,.42-0.091,1.058,1.058,0,0,0,.52-0.117,2.2,2.2,0,0,1,1.27-.094,3,3,0,0,0,.76-0.12c0.17-.056.2-0.064,0.36-0.122a5.244,5.244,0,0,0,1.46-.969,9.611,9.611,0,0,0,1.36-1.608,3,3,0,0,1,.66-0.783,0.921,0.921,0,0,0,.25-0.32,3.571,3.571,0,0,0,.27-1.343,0.449,0.449,0,0,1,.3-0.6,3.265,3.265,0,0,1,.4-0.216,2.807,2.807,0,0,0,.46-0.168,0.736,0.736,0,0,0,.38-0.5,1.242,1.242,0,0,1,.04-0.517,1.036,1.036,0,0,0,.07-0.345,3.484,3.484,0,0,1-.05-0.494,0.9,0.9,0,0,0-.12-0.494,1.117,1.117,0,0,1-.08-0.172,0.522,0.522,0,0,0-.09-0.264,0.532,0.532,0,0,1-.14-0.217,2.885,2.885,0,0,1,.91-0.913,0.713,0.713,0,0,0,.32-0.35,1.8,1.8,0,0,1,.94-0.725c0.2-.1.43-0.171,0.56-0.257a1.566,1.566,0,0,0,.47-0.523,1.373,1.373,0,0,0,.42-1.377,6.232,6.232,0,0,1-.06-1.414c0.05-.93.04-0.989-0.15-1.166a3,3,0,0,1-.49-1.305,2.5,2.5,0,0,1,.1-0.68c0.08-.079.05-0.161-0.13-0.342a0.689,0.689,0,0,1-.22-0.424c0-.044-0.01-0.1-0.01-0.109a0.778,0.778,0,0,1,.15-0.361,1.166,1.166,0,0,1,.16-0.43,3.644,3.644,0,0,0,.48-1.152,0.239,0.239,0,0,1,.16-0.2,3.427,3.427,0,0,0,.9-0.936,8.1,8.1,0,0,1,1.28-1.574,4.369,4.369,0,0,1,.62-0.478,12.355,12.355,0,0,0,1.64-1.791c0.06-.091.12-0.264,0.26-0.5a1.959,1.959,0,0,0,.27-0.561,2.115,2.115,0,0,1,.22-0.545,9.68,9.68,0,0,0,.75-1.8,0.505,0.505,0,0,1,.09-0.344,0.4,0.4,0,0,0,.13-0.328,0.625,0.625,0,0,1-.02-0.366c0.04-.327.01-0.419-0.12-0.489-0.2-.11-0.22-0.108-0.36.028a1.867,1.867,0,0,1-1.04.358,0.875,0.875,0,0,0-.31.058,2.413,2.413,0,0,0-.31.042,3.29,3.29,0,0,1-.4.1c-0.17.027-.27,0.054-0.49,0.1a6.015,6.015,0,0,0-.68.22c-0.22.091-.16,0.08-0.34-0.014a0.437,0.437,0,0,1-.21-0.178,1.037,1.037,0,0,0-.22-0.294c-0.12-.129-0.18-0.255-0.13-0.284,0.2-.123.06-0.494-0.32-0.888a2.139,2.139,0,0,1-.4-0.494,0.1,0.1,0,0,0-.11-0.081,0.569,0.569,0,0,1-.28-0.266,0.727,0.727,0,0,0-.25-0.267,0.444,0.444,0,0,1-.21-0.133,0.367,0.367,0,0,1-.19-0.27c0.01-.135.02-0.266-0.14-0.266a0.319,0.319,0,0,1-.23,0,0.517,0.517,0,0,1-.27-0.311,1.876,1.876,0,0,0-.71-1.428,1.663,1.663,0,0,1-.56-1.541,0.568,0.568,0,0,0-.1-0.413,0.426,0.426,0,0,1-.13-0.289,1.315,1.315,0,0,0-.41-0.572c-0.35-.334-0.4-0.424-0.35-0.647a0.542,0.542,0,0,0-.21-0.547,1.042,1.042,0,0,1-.27-0.405,2.261,2.261,0,0,0-.3-0.606,1.564,1.564,0,0,1-.31-0.794,0.4,0.4,0,0,0-.07-0.311,2.592,2.592,0,0,1-.73-1.036,0.407,0.407,0,0,0-.09-0.258,1.927,1.927,0,0,1-.14-0.616,1.853,1.853,0,0,0-.14-0.633,1.572,1.572,0,0,0-1.5.214,0.318,0.318,0,0,1-.31.066,9.7,9.7,0,0,0-1.9-.436,0.221,0.221,0,0,1-.22-0.133,0.508,0.508,0,0,0-.5-0.189c-0.41,0-.53-0.059-0.62-0.289a0.252,0.252,0,0,0-.22-0.155,0.381,0.381,0,0,1-.25-0.1,1.179,1.179,0,0,0-1.13.294,0.549,0.549,0,0,0-.28.7,0.6,0.6,0,0,1-.09.564,0.457,0.457,0,0,1-.69-0.05,2.26,2.26,0,0,0-1.21-.428,0.468,0.468,0,0,1-.48-0.469,0.364,0.364,0,0,0-.29-0.3,1.033,1.033,0,0,1-.39-0.192,0.959,0.959,0,0,0-.58-0.125,1.072,1.072,0,0,1-1.09-.549,0.244,0.244,0,0,0-.24-0.025c-0.18.035-.28,0.013-0.31-0.07a0.447,0.447,0,0,1,.46-0.405,0.177,0.177,0,0,0,.19-0.089,0.748,0.748,0,0,1-.12-0.347,0.262,0.262,0,0,0-.14-0.358c-0.23-.125-0.23-0.224-0.01-0.45,0.21-.2.22-0.258,0.08-0.444-0.07-.1-0.05-0.044-0.13-0.023-0.29.07-.22,0.1-0.3,0.028a0.378,0.378,0,0,0-.32-0.147h0Zm22.94,32.742a0.426,0.426,0,0,0-.26.222,0.876,0.876,0,0,0-.08.378c0,0.312-.08.368-0.25,0.191-0.09-.083-0.13.033-0.17,0.113a0.8,0.8,0,0,1-.07.135,2.233,2.233,0,0,0-.08.241,0.91,0.91,0,0,1-.16.33,1.6,1.6,0,0,0-.2.177,2.092,2.092,0,0,0-.08.215,1.91,1.91,0,0,1-.77.458,2.355,2.355,0,0,0-.47.228,0.552,0.552,0,0,1-.25.075,0.175,0.175,0,0,0-.16.208,0.814,0.814,0,0,1-.17.416c-0.2.224-.19,0.477,0.01,1.386a0.767,0.767,0,0,1-.13.83c-0.13.2-.22,0.346-0.25,0.4a0.969,0.969,0,0,1-.11.158,1.107,1.107,0,0,0-.24.491,1.061,1.061,0,0,0,.06.647,2.417,2.417,0,0,1,.16.719,3.261,3.261,0,0,0,0,.444,0.686,0.686,0,0,0,.21.323,0.8,0.8,0,0,0,.33.221,1.064,1.064,0,0,0,.92-0.05c0.1-.034.24-0.021,0.32-0.052a0.3,0.3,0,0,0,.11-0.128,0.977,0.977,0,0,0,.26-0.295,2.941,2.941,0,0,0,.1-0.348,2.081,2.081,0,0,1,.18-0.242,1.555,1.555,0,0,0,.05-0.467,3.815,3.815,0,0,1,.23-0.634,1.455,1.455,0,0,0,.17-0.46,5.983,5.983,0,0,1,.49-1.394,5.6,5.6,0,0,0,.23-0.844,1.538,1.538,0,0,1,.27-0.711c0.14-.113.15-0.184,0.07-0.444-0.11-.4-0.11-0.4.04-0.27,0.19,0.153.45-.364,0.32-0.613a1.223,1.223,0,0,1-.09-0.467,1.291,1.291,0,0,0-.03-0.378c-0.01-.045-0.09-0.228-0.1-0.274a2.109,2.109,0,0,0-.08-0.452,1.36,1.36,0,0,0-.29-0.47,0.037,0.037,0,0,0-.04-0.017h0Z" transform="translate(-2250 -213)"/>
</svg>
