<svg xmlns="http://www.w3.org/2000/svg" width="23.594" height="24" viewBox="0 0 23.594 24">
  <defs>
    <style>
      .cls-1 {
        fill: #5c6268;
        fill-rule: evenodd;
      }
    </style>
  </defs>
  <path id="Instagram" class="cls-1" d="M111.38,1071H93.037a2.652,2.652,0,0,0-2.62,2.67v18.66a2.652,2.652,0,0,0,2.62,2.67H111.38a2.652,2.652,0,0,0,2.62-2.67v-18.66A2.652,2.652,0,0,0,111.38,1071Zm-9.192,19.36a7.316,7.316,0,0,0,7.255-7.38,7.094,7.094,0,0,0-.135-1.31h2.072v9.62a0.913,0.913,0,0,1-.908.92H93.945a0.913,0.913,0,0,1-.908-0.92v-9.62h2.029a7,7,0,0,0-.136,1.31A7.318,7.318,0,0,0,102.188,1090.36Zm-4.535-7.38a4.537,4.537,0,1,1,4.536,4.61A4.579,4.579,0,0,1,97.653,1082.98Zm12.819-5.31h-2.116a0.921,0.921,0,0,1-.907-0.93v-2.15a0.912,0.912,0,0,1,.905-0.92h2.116a0.914,0.914,0,0,1,.91.92v2.15A0.922,0.922,0,0,1,110.472,1077.67Z" transform="translate(-90.406 -1071)"/>
</svg>
