<svg xmlns="http://www.w3.org/2000/svg" width="23.594" height="24" viewBox="0 0 23.594 24">
  <defs>
    <style>
      .cls-1 {
        fill: #5c6268;
        fill-rule: evenodd;
      }
    </style>
  </defs>
  <path id="Facebook" class="cls-1" d="M110.963,1028H92.62a2.652,2.652,0,0,0-2.62,2.67v18.66a2.652,2.652,0,0,0,2.62,2.67h9.172v-9.33H99.171v-3.3h2.621v-2.74c0-2.88,1.587-4.91,4.934-4.91h2.362v3.48H107.52a1.744,1.744,0,0,0-1.8,1.91v2.26h3.365l-0.745,3.3h-2.62V1052h5.241a2.652,2.652,0,0,0,2.62-2.67v-18.66A2.652,2.652,0,0,0,110.963,1028Z" transform="translate(-90 -1028)"/>
</svg>
