<svg xmlns="http://www.w3.org/2000/svg" width="23.625" height="19.996" viewBox="0 0 23.625 19.996">
  <defs>
    <style>
      .cls-1 {
        fill: #5c6268;
        fill-rule: evenodd;
      }
    </style>
  </defs>
  <path id="Twitter" class="cls-1" d="M111.3,990.827c0.011,0.217.014,0.436,0.014,0.653,0,6.672-4.877,14.36-13.795,14.36a13.274,13.274,0,0,1-7.433-2.27,8.858,8.858,0,0,0,1.156.07,9.493,9.493,0,0,0,6.022-2.15,4.9,4.9,0,0,1-4.529-3.509,4.806,4.806,0,0,0,.912.088,4.684,4.684,0,0,0,1.278-.175,5.006,5.006,0,0,1-3.889-4.951V992.88a4.7,4.7,0,0,0,2.2.632,5.1,5.1,0,0,1-2.158-4.2,5.174,5.174,0,0,1,.658-2.538,13.6,13.6,0,0,0,9.995,5.275,5.255,5.255,0,0,1-.125-1.152,4.948,4.948,0,0,1,4.848-5.044,4.756,4.756,0,0,1,3.54,1.592,9.527,9.527,0,0,0,3.079-1.225,5.04,5.04,0,0,1-2.132,2.792,9.415,9.415,0,0,0,2.784-.794A10.031,10.031,0,0,1,111.3,990.827Z" transform="translate(-90.094 -985.844)"/>
</svg>
